<mxfile host="app.diagrams.net" modified="2024-04-20T14:21:38.441Z" agent="Mozilla/5.0 (Windows NT 10.0; Win64; x64) AppleWebKit/537.36 (KHTML, like Gecko) Chrome/124.0.0.0 Safari/537.36" etag="0EmtVkKGyzsVr24Y9Q2v" version="24.2.7" type="google">
  <diagram id="R2lEEEUBdFMjLlhIrx00" name="Page-1">
    <mxGraphModel grid="1" page="1" gridSize="10" guides="1" tooltips="1" connect="1" arrows="1" fold="1" pageScale="1" pageWidth="850" pageHeight="1100" math="0" shadow="0" extFonts="Permanent Marker^https://fonts.googleapis.com/css?family=Permanent+Marker">
      <root>
        <mxCell id="0" />
        <mxCell id="1" parent="0" />
        <mxCell id="LMdMEM0r51TsX3CFZxZR-1" value="Categoria Padre" style="rounded=0;whiteSpace=wrap;html=1;" vertex="1" parent="1">
          <mxGeometry x="114" y="120" width="150" height="70" as="geometry" />
        </mxCell>
        <mxCell id="LMdMEM0r51TsX3CFZxZR-4" style="edgeStyle=orthogonalEdgeStyle;rounded=0;orthogonalLoop=1;jettySize=auto;html=1;entryX=1;entryY=0.5;entryDx=0;entryDy=0;endArrow=block;endFill=1;" edge="1" parent="1" source="LMdMEM0r51TsX3CFZxZR-2" target="LMdMEM0r51TsX3CFZxZR-1">
          <mxGeometry relative="1" as="geometry" />
        </mxCell>
        <mxCell id="LMdMEM0r51TsX3CFZxZR-2" value="Categoria Figlio" style="rounded=0;whiteSpace=wrap;html=1;" vertex="1" parent="1">
          <mxGeometry x="354" y="120" width="150" height="70" as="geometry" />
        </mxCell>
        <mxCell id="LMdMEM0r51TsX3CFZxZR-88" style="rounded=0;orthogonalLoop=1;jettySize=auto;html=1;entryX=0;entryY=0.5;entryDx=0;entryDy=0;endArrow=none;endFill=0;" edge="1" parent="1" source="LMdMEM0r51TsX3CFZxZR-26" target="LMdMEM0r51TsX3CFZxZR-87">
          <mxGeometry relative="1" as="geometry" />
        </mxCell>
        <mxCell id="pPQDOuwSR7aIzYC2pbxe-26" value="(1, n)" style="edgeLabel;html=1;align=center;verticalAlign=middle;resizable=0;points=[];" connectable="0" vertex="1" parent="LMdMEM0r51TsX3CFZxZR-88">
          <mxGeometry x="-0.5" y="1" relative="1" as="geometry">
            <mxPoint as="offset" />
          </mxGeometry>
        </mxCell>
        <mxCell id="LMdMEM0r51TsX3CFZxZR-108" style="rounded=0;orthogonalLoop=1;jettySize=auto;html=1;endArrow=oval;endFill=1;" edge="1" parent="1" source="LMdMEM0r51TsX3CFZxZR-26">
          <mxGeometry relative="1" as="geometry">
            <mxPoint x="464" y="439.9999999999998" as="targetPoint" />
          </mxGeometry>
        </mxCell>
        <mxCell id="LMdMEM0r51TsX3CFZxZR-127" style="rounded=0;orthogonalLoop=1;jettySize=auto;html=1;endArrow=oval;endFill=1;" edge="1" parent="1" source="LMdMEM0r51TsX3CFZxZR-26">
          <mxGeometry relative="1" as="geometry">
            <mxPoint x="334" y="430" as="targetPoint" />
          </mxGeometry>
        </mxCell>
        <mxCell id="LMdMEM0r51TsX3CFZxZR-26" value="Richiesta di &lt;br&gt;Acquisto" style="rounded=0;whiteSpace=wrap;html=1;" vertex="1" parent="1">
          <mxGeometry x="344" y="460" width="130" height="70" as="geometry" />
        </mxCell>
        <mxCell id="LMdMEM0r51TsX3CFZxZR-46" value="Informatica&lt;div&gt;Modulistica&lt;/div&gt;&lt;div&gt;Mobilio&lt;/div&gt;" style="ellipse;shape=cloud;whiteSpace=wrap;html=1;" vertex="1" parent="1">
          <mxGeometry x="104" y="40" width="120" height="80" as="geometry" />
        </mxCell>
        <mxCell id="LMdMEM0r51TsX3CFZxZR-47" value="Computer&lt;br&gt;Accessori&lt;div&gt;Illuminazione&lt;br&gt;Mobili&lt;/div&gt;" style="ellipse;shape=cloud;whiteSpace=wrap;html=1;" vertex="1" parent="1">
          <mxGeometry x="504" y="60" width="120" height="80" as="geometry" />
        </mxCell>
        <mxCell id="LMdMEM0r51TsX3CFZxZR-66" style="edgeStyle=orthogonalEdgeStyle;rounded=0;orthogonalLoop=1;jettySize=auto;html=1;endArrow=block;endFill=1;" edge="1" parent="1" source="LMdMEM0r51TsX3CFZxZR-61" target="LMdMEM0r51TsX3CFZxZR-2">
          <mxGeometry relative="1" as="geometry" />
        </mxCell>
        <mxCell id="LMdMEM0r51TsX3CFZxZR-67" style="rounded=0;orthogonalLoop=1;jettySize=auto;html=1;entryX=0;entryY=0.5;entryDx=0;entryDy=0;endArrow=none;endFill=0;" edge="1" parent="1" source="LMdMEM0r51TsX3CFZxZR-61" target="LMdMEM0r51TsX3CFZxZR-68">
          <mxGeometry relative="1" as="geometry">
            <mxPoint x="594" y="350" as="targetPoint" />
          </mxGeometry>
        </mxCell>
        <mxCell id="pPQDOuwSR7aIzYC2pbxe-20" value="(1, n)" style="edgeLabel;html=1;align=center;verticalAlign=middle;resizable=0;points=[];" connectable="0" vertex="1" parent="LMdMEM0r51TsX3CFZxZR-67">
          <mxGeometry x="-0.2121" relative="1" as="geometry">
            <mxPoint as="offset" />
          </mxGeometry>
        </mxCell>
        <mxCell id="LMdMEM0r51TsX3CFZxZR-61" value="Categoria Nipote" style="whiteSpace=wrap;html=1;align=center;" vertex="1" parent="1">
          <mxGeometry x="365.25" y="290" width="127.5" height="60" as="geometry" />
        </mxCell>
        <mxCell id="LMdMEM0r51TsX3CFZxZR-68" value="Caratterizzato" style="shape=rhombus;double=1;perimeter=rhombusPerimeter;whiteSpace=wrap;html=1;align=center;" vertex="1" parent="1">
          <mxGeometry x="534" y="295" width="120" height="60" as="geometry" />
        </mxCell>
        <mxCell id="LMdMEM0r51TsX3CFZxZR-69" style="rounded=0;orthogonalLoop=1;jettySize=auto;html=1;entryX=0.042;entryY=0.5;entryDx=0;entryDy=0;entryPerimeter=0;endArrow=none;endFill=0;" edge="1" parent="1" source="LMdMEM0r51TsX3CFZxZR-68" target="LMdMEM0r51TsX3CFZxZR-74">
          <mxGeometry relative="1" as="geometry">
            <mxPoint x="695.7600000000002" y="324.65999999999985" as="targetPoint" />
          </mxGeometry>
        </mxCell>
        <mxCell id="pPQDOuwSR7aIzYC2pbxe-21" value="(1, 1)" style="edgeLabel;html=1;align=center;verticalAlign=middle;resizable=0;points=[];" connectable="0" vertex="1" parent="LMdMEM0r51TsX3CFZxZR-69">
          <mxGeometry x="0.1707" relative="1" as="geometry">
            <mxPoint as="offset" />
          </mxGeometry>
        </mxCell>
        <mxCell id="LMdMEM0r51TsX3CFZxZR-72" style="rounded=0;orthogonalLoop=1;jettySize=auto;html=1;endArrow=none;endFill=0;entryX=0;entryY=0.5;entryDx=0;entryDy=0;startArrow=oval;startFill=1;" edge="1" parent="1" target="LMdMEM0r51TsX3CFZxZR-61">
          <mxGeometry relative="1" as="geometry">
            <mxPoint x="334" y="330" as="targetPoint" />
            <mxPoint x="314" y="320" as="sourcePoint" />
          </mxGeometry>
        </mxCell>
        <mxCell id="LMdMEM0r51TsX3CFZxZR-76" style="rounded=0;orthogonalLoop=1;jettySize=auto;html=1;endArrow=oval;endFill=1;entryX=0.539;entryY=-0.133;entryDx=0;entryDy=0;entryPerimeter=0;" edge="1" parent="1" source="LMdMEM0r51TsX3CFZxZR-74" target="LMdMEM0r51TsX3CFZxZR-77">
          <mxGeometry relative="1" as="geometry">
            <mxPoint x="772" y="400" as="targetPoint" />
          </mxGeometry>
        </mxCell>
        <mxCell id="LMdMEM0r51TsX3CFZxZR-74" value="Caratteristica" style="shape=ext;margin=3;double=1;whiteSpace=wrap;html=1;align=center;" vertex="1" parent="1">
          <mxGeometry x="699" y="290" width="125" height="65" as="geometry" />
        </mxCell>
        <mxCell id="LMdMEM0r51TsX3CFZxZR-77" value="&lt;u&gt;Nome&lt;/u&gt;" style="text;html=1;align=center;verticalAlign=middle;resizable=0;points=[];autosize=1;strokeColor=none;fillColor=none;" vertex="1" parent="1">
          <mxGeometry x="731.5" y="385" width="60" height="30" as="geometry" />
        </mxCell>
        <mxCell id="LMdMEM0r51TsX3CFZxZR-89" style="rounded=0;orthogonalLoop=1;jettySize=auto;html=1;entryX=0;entryY=0.75;entryDx=0;entryDy=0;endArrow=none;endFill=0;" edge="1" parent="1" source="LMdMEM0r51TsX3CFZxZR-87" target="LMdMEM0r51TsX3CFZxZR-74">
          <mxGeometry relative="1" as="geometry" />
        </mxCell>
        <mxCell id="pPQDOuwSR7aIzYC2pbxe-31" value="(0, n)" style="edgeLabel;html=1;align=center;verticalAlign=middle;resizable=0;points=[];" connectable="0" vertex="1" parent="LMdMEM0r51TsX3CFZxZR-89">
          <mxGeometry x="0.6893" y="-2" relative="1" as="geometry">
            <mxPoint x="-5" y="4" as="offset" />
          </mxGeometry>
        </mxCell>
        <mxCell id="pPQDOuwSR7aIzYC2pbxe-1" style="rounded=0;orthogonalLoop=1;jettySize=auto;html=1;endArrow=oval;endFill=1;" edge="1" parent="1" source="LMdMEM0r51TsX3CFZxZR-87">
          <mxGeometry relative="1" as="geometry">
            <mxPoint x="662" y="530" as="targetPoint" />
          </mxGeometry>
        </mxCell>
        <mxCell id="LMdMEM0r51TsX3CFZxZR-87" value="Composta" style="shape=rhombus;perimeter=rhombusPerimeter;whiteSpace=wrap;html=1;align=center;" vertex="1" parent="1">
          <mxGeometry x="534" y="465" width="120" height="60" as="geometry" />
        </mxCell>
        <mxCell id="LMdMEM0r51TsX3CFZxZR-91" value="Note" style="text;html=1;align=center;verticalAlign=middle;resizable=0;points=[];autosize=1;strokeColor=none;fillColor=none;" vertex="1" parent="1">
          <mxGeometry x="442.75" y="415" width="50" height="30" as="geometry" />
        </mxCell>
        <mxCell id="LMdMEM0r51TsX3CFZxZR-94" style="rounded=0;orthogonalLoop=1;jettySize=auto;html=1;endArrow=oval;endFill=1;" edge="1" parent="1" source="LMdMEM0r51TsX3CFZxZR-92">
          <mxGeometry relative="1" as="geometry">
            <mxPoint x="514" y="710" as="targetPoint" />
          </mxGeometry>
        </mxCell>
        <mxCell id="LMdMEM0r51TsX3CFZxZR-139" style="rounded=0;orthogonalLoop=1;jettySize=auto;html=1;entryX=1;entryY=0;entryDx=0;entryDy=0;endArrow=none;endFill=0;" edge="1" parent="1" source="LMdMEM0r51TsX3CFZxZR-92" target="LMdMEM0r51TsX3CFZxZR-138">
          <mxGeometry relative="1" as="geometry" />
        </mxCell>
        <mxCell id="pPQDOuwSR7aIzYC2pbxe-43" value="(1, 1)" style="edgeLabel;html=1;align=center;verticalAlign=middle;resizable=0;points=[];" connectable="0" vertex="1" parent="LMdMEM0r51TsX3CFZxZR-139">
          <mxGeometry x="-0.8322" y="2" relative="1" as="geometry">
            <mxPoint as="offset" />
          </mxGeometry>
        </mxCell>
        <mxCell id="LMdMEM0r51TsX3CFZxZR-92" value="Proposta" style="rounded=0;whiteSpace=wrap;html=1;" vertex="1" parent="1">
          <mxGeometry x="347" y="720" width="127" height="60" as="geometry" />
        </mxCell>
        <mxCell id="LMdMEM0r51TsX3CFZxZR-95" value="Produttore" style="text;html=1;align=center;verticalAlign=middle;resizable=0;points=[];autosize=1;strokeColor=none;fillColor=none;" vertex="1" parent="1">
          <mxGeometry x="500" y="712" width="80" height="30" as="geometry" />
        </mxCell>
        <mxCell id="LMdMEM0r51TsX3CFZxZR-96" style="rounded=0;orthogonalLoop=1;jettySize=auto;html=1;endArrow=oval;endFill=1;exitX=0.75;exitY=1;exitDx=0;exitDy=0;" edge="1" parent="1" source="LMdMEM0r51TsX3CFZxZR-92">
          <mxGeometry relative="1" as="geometry">
            <mxPoint x="467" y="820" as="targetPoint" />
            <mxPoint x="467" y="780" as="sourcePoint" />
          </mxGeometry>
        </mxCell>
        <mxCell id="LMdMEM0r51TsX3CFZxZR-97" value="Nome &lt;br&gt;Prodotto" style="text;html=1;align=center;verticalAlign=middle;resizable=0;points=[];autosize=1;strokeColor=none;fillColor=none;" vertex="1" parent="1">
          <mxGeometry x="432" y="818" width="70" height="40" as="geometry" />
        </mxCell>
        <mxCell id="LMdMEM0r51TsX3CFZxZR-98" style="rounded=0;orthogonalLoop=1;jettySize=auto;html=1;endArrow=oval;endFill=1;exitX=0.25;exitY=1;exitDx=0;exitDy=0;" edge="1" parent="1" source="LMdMEM0r51TsX3CFZxZR-92">
          <mxGeometry relative="1" as="geometry">
            <mxPoint x="347" y="825" as="targetPoint" />
            <mxPoint x="347" y="785" as="sourcePoint" />
          </mxGeometry>
        </mxCell>
        <mxCell id="LMdMEM0r51TsX3CFZxZR-99" value="&lt;u&gt;Codice&lt;br&gt;Prodotto&lt;/u&gt;" style="text;html=1;align=center;verticalAlign=middle;resizable=0;points=[];autosize=1;strokeColor=none;fillColor=none;" vertex="1" parent="1">
          <mxGeometry x="312" y="822" width="70" height="40" as="geometry" />
        </mxCell>
        <mxCell id="LMdMEM0r51TsX3CFZxZR-100" style="rounded=0;orthogonalLoop=1;jettySize=auto;html=1;endArrow=oval;endFill=1;exitX=1;exitY=0.75;exitDx=0;exitDy=0;" edge="1" parent="1" source="LMdMEM0r51TsX3CFZxZR-92">
          <mxGeometry relative="1" as="geometry">
            <mxPoint x="517" y="810" as="targetPoint" />
            <mxPoint x="517" y="770" as="sourcePoint" />
          </mxGeometry>
        </mxCell>
        <mxCell id="LMdMEM0r51TsX3CFZxZR-101" value="Prezzo" style="text;html=1;align=center;verticalAlign=middle;resizable=0;points=[];autosize=1;strokeColor=none;fillColor=none;" vertex="1" parent="1">
          <mxGeometry x="487" y="808" width="60" height="30" as="geometry" />
        </mxCell>
        <mxCell id="LMdMEM0r51TsX3CFZxZR-102" style="rounded=0;orthogonalLoop=1;jettySize=auto;html=1;endArrow=oval;endFill=1;exitX=0;exitY=1;exitDx=0;exitDy=0;entryX=0.657;entryY=-0.026;entryDx=0;entryDy=0;entryPerimeter=0;" edge="1" parent="1" source="LMdMEM0r51TsX3CFZxZR-92" target="LMdMEM0r51TsX3CFZxZR-103">
          <mxGeometry relative="1" as="geometry">
            <mxPoint x="277" y="810" as="targetPoint" />
            <mxPoint x="277" y="770" as="sourcePoint" />
          </mxGeometry>
        </mxCell>
        <mxCell id="LMdMEM0r51TsX3CFZxZR-103" value="Url" style="text;html=1;align=center;verticalAlign=middle;resizable=0;points=[];autosize=1;strokeColor=none;fillColor=none;" vertex="1" parent="1">
          <mxGeometry x="281" y="817" width="40" height="30" as="geometry" />
        </mxCell>
        <mxCell id="LMdMEM0r51TsX3CFZxZR-105" style="rounded=0;orthogonalLoop=1;jettySize=auto;html=1;endArrow=oval;endFill=1;exitX=1;exitY=0.5;exitDx=0;exitDy=0;" edge="1" parent="1" source="LMdMEM0r51TsX3CFZxZR-92">
          <mxGeometry relative="1" as="geometry">
            <mxPoint x="517" y="760" as="targetPoint" />
            <mxPoint x="542" y="730" as="sourcePoint" />
          </mxGeometry>
        </mxCell>
        <mxCell id="LMdMEM0r51TsX3CFZxZR-106" value="Note" style="text;html=1;align=center;verticalAlign=middle;resizable=0;points=[];autosize=1;strokeColor=none;fillColor=none;" vertex="1" parent="1">
          <mxGeometry x="500" y="757" width="50" height="30" as="geometry" />
        </mxCell>
        <mxCell id="LMdMEM0r51TsX3CFZxZR-110" style="rounded=0;orthogonalLoop=1;jettySize=auto;html=1;entryX=1;entryY=0.5;entryDx=0;entryDy=0;endArrow=none;endFill=0;" edge="1" parent="1" source="LMdMEM0r51TsX3CFZxZR-109" target="LMdMEM0r51TsX3CFZxZR-133">
          <mxGeometry relative="1" as="geometry" />
        </mxCell>
        <mxCell id="pPQDOuwSR7aIzYC2pbxe-36" value="(0, n)" style="edgeLabel;html=1;align=center;verticalAlign=middle;resizable=0;points=[];" connectable="0" vertex="1" parent="LMdMEM0r51TsX3CFZxZR-110">
          <mxGeometry x="0.4246" y="-2" relative="1" as="geometry">
            <mxPoint as="offset" />
          </mxGeometry>
        </mxCell>
        <mxCell id="LMdMEM0r51TsX3CFZxZR-111" style="rounded=0;orthogonalLoop=1;jettySize=auto;html=1;entryX=0.5;entryY=0;entryDx=0;entryDy=0;endArrow=none;endFill=0;" edge="1" parent="1" source="LMdMEM0r51TsX3CFZxZR-109" target="LMdMEM0r51TsX3CFZxZR-92">
          <mxGeometry relative="1" as="geometry" />
        </mxCell>
        <mxCell id="pPQDOuwSR7aIzYC2pbxe-37" value="(1, 1)" style="edgeLabel;html=1;align=center;verticalAlign=middle;resizable=0;points=[];" connectable="0" vertex="1" parent="LMdMEM0r51TsX3CFZxZR-111">
          <mxGeometry x="0.1" y="1" relative="1" as="geometry">
            <mxPoint as="offset" />
          </mxGeometry>
        </mxCell>
        <mxCell id="LMdMEM0r51TsX3CFZxZR-109" value="è associata" style="shape=rhombus;perimeter=rhombusPerimeter;whiteSpace=wrap;html=1;align=center;" vertex="1" parent="1">
          <mxGeometry x="349" y="620" width="120" height="60" as="geometry" />
        </mxCell>
        <mxCell id="LMdMEM0r51TsX3CFZxZR-122" style="rounded=0;orthogonalLoop=1;jettySize=auto;html=1;endArrow=oval;endFill=1;entryX=0.733;entryY=0;entryDx=0;entryDy=0;entryPerimeter=0;exitX=0.25;exitY=1;exitDx=0;exitDy=0;" edge="1" parent="1" source="LMdMEM0r51TsX3CFZxZR-113" target="LMdMEM0r51TsX3CFZxZR-123">
          <mxGeometry relative="1" as="geometry">
            <mxPoint x="-484" y="690" as="targetPoint" />
            <mxPoint x="-459.57142857142867" y="635" as="sourcePoint" />
          </mxGeometry>
        </mxCell>
        <mxCell id="LMdMEM0r51TsX3CFZxZR-124" style="rounded=0;orthogonalLoop=1;jettySize=auto;html=1;endArrow=oval;endFill=1;entryX=0.543;entryY=-0.067;entryDx=0;entryDy=0;entryPerimeter=0;exitX=0.5;exitY=1;exitDx=0;exitDy=0;" edge="1" parent="1" source="LMdMEM0r51TsX3CFZxZR-113" target="LMdMEM0r51TsX3CFZxZR-125">
          <mxGeometry relative="1" as="geometry">
            <mxPoint x="-424" y="680" as="targetPoint" />
            <mxPoint x="-433.8571428571429" y="635" as="sourcePoint" />
          </mxGeometry>
        </mxCell>
        <mxCell id="LMdMEM0r51TsX3CFZxZR-113" value="Utente" style="rounded=0;whiteSpace=wrap;html=1;" vertex="1" parent="1">
          <mxGeometry x="-556" y="590" width="120" height="60" as="geometry" />
        </mxCell>
        <mxCell id="LMdMEM0r51TsX3CFZxZR-121" style="rounded=0;orthogonalLoop=1;jettySize=auto;html=1;entryX=0.5;entryY=0;entryDx=0;entryDy=0;endArrow=block;endFill=1;" edge="1" parent="1" source="LMdMEM0r51TsX3CFZxZR-116" target="LMdMEM0r51TsX3CFZxZR-113">
          <mxGeometry relative="1" as="geometry" />
        </mxCell>
        <mxCell id="LMdMEM0r51TsX3CFZxZR-116" value="Amministratore" style="rounded=0;whiteSpace=wrap;html=1;" vertex="1" parent="1">
          <mxGeometry x="-556" y="443" width="120" height="60" as="geometry" />
        </mxCell>
        <mxCell id="LMdMEM0r51TsX3CFZxZR-120" style="rounded=0;orthogonalLoop=1;jettySize=auto;html=1;entryX=1;entryY=0.5;entryDx=0;entryDy=0;endArrow=classic;endFill=1;" edge="1" parent="1" source="LMdMEM0r51TsX3CFZxZR-117" target="LMdMEM0r51TsX3CFZxZR-113">
          <mxGeometry relative="1" as="geometry" />
        </mxCell>
        <mxCell id="LMdMEM0r51TsX3CFZxZR-117" value="Tecnico" style="rounded=0;whiteSpace=wrap;html=1;" vertex="1" parent="1">
          <mxGeometry x="-356" y="590" width="120" height="60" as="geometry" />
        </mxCell>
        <mxCell id="LMdMEM0r51TsX3CFZxZR-119" style="rounded=0;orthogonalLoop=1;jettySize=auto;html=1;entryX=1;entryY=0.25;entryDx=0;entryDy=0;endArrow=classic;endFill=1;exitX=0;exitY=0.5;exitDx=0;exitDy=0;" edge="1" parent="1" source="LMdMEM0r51TsX3CFZxZR-118" target="LMdMEM0r51TsX3CFZxZR-113">
          <mxGeometry relative="1" as="geometry">
            <mxPoint x="-204" y="525.7142857142858" as="sourcePoint" />
          </mxGeometry>
        </mxCell>
        <mxCell id="LMdMEM0r51TsX3CFZxZR-118" value="Ordinante" style="rounded=0;whiteSpace=wrap;html=1;" vertex="1" parent="1">
          <mxGeometry x="-106" y="470" width="120" height="60" as="geometry" />
        </mxCell>
        <mxCell id="LMdMEM0r51TsX3CFZxZR-123" value="&lt;u&gt;e-mail&lt;/u&gt;" style="text;html=1;align=center;verticalAlign=middle;resizable=0;points=[];autosize=1;strokeColor=none;fillColor=none;" vertex="1" parent="1">
          <mxGeometry x="-626" y="690" width="60" height="30" as="geometry" />
        </mxCell>
        <mxCell id="LMdMEM0r51TsX3CFZxZR-125" value="&lt;u&gt;password&lt;/u&gt;" style="text;html=1;align=center;verticalAlign=middle;resizable=0;points=[];autosize=1;strokeColor=none;fillColor=none;" vertex="1" parent="1">
          <mxGeometry x="-546" y="697" width="70" height="30" as="geometry" />
        </mxCell>
        <mxCell id="gG1z2j5m3SK7_xUaOW5N-4" style="rounded=0;orthogonalLoop=1;jettySize=auto;html=1;entryX=0;entryY=0.25;entryDx=0;entryDy=0;endArrow=none;endFill=0;" edge="1" parent="1" source="LMdMEM0r51TsX3CFZxZR-126" target="LMdMEM0r51TsX3CFZxZR-92">
          <mxGeometry relative="1" as="geometry" />
        </mxCell>
        <mxCell id="pPQDOuwSR7aIzYC2pbxe-39" value="(1, 1)" style="edgeLabel;html=1;align=center;verticalAlign=middle;resizable=0;points=[];" connectable="0" vertex="1" parent="gG1z2j5m3SK7_xUaOW5N-4">
          <mxGeometry x="0.6355" y="2" relative="1" as="geometry">
            <mxPoint y="-1" as="offset" />
          </mxGeometry>
        </mxCell>
        <mxCell id="LMdMEM0r51TsX3CFZxZR-126" value="Suggerisce" style="shape=rhombus;perimeter=rhombusPerimeter;whiteSpace=wrap;html=1;align=center;" vertex="1" parent="1">
          <mxGeometry x="92" y="675" width="120" height="60" as="geometry" />
        </mxCell>
        <mxCell id="gG1z2j5m3SK7_xUaOW5N-2" value="" style="endArrow=none;html=1;rounded=0;entryX=1;entryY=0.75;entryDx=0;entryDy=0;" edge="1" parent="1" source="LMdMEM0r51TsX3CFZxZR-126" target="LMdMEM0r51TsX3CFZxZR-146">
          <mxGeometry width="50" height="50" relative="1" as="geometry">
            <mxPoint x="24" y="850" as="sourcePoint" />
            <mxPoint x="-76" y="700" as="targetPoint" />
          </mxGeometry>
        </mxCell>
        <mxCell id="pPQDOuwSR7aIzYC2pbxe-38" value="(1, n)" style="edgeLabel;html=1;align=center;verticalAlign=middle;resizable=0;points=[];" connectable="0" vertex="1" parent="gG1z2j5m3SK7_xUaOW5N-2">
          <mxGeometry x="0.6412" y="-1" relative="1" as="geometry">
            <mxPoint as="offset" />
          </mxGeometry>
        </mxCell>
        <mxCell id="LMdMEM0r51TsX3CFZxZR-128" value="&lt;u&gt;Codice&lt;/u&gt;&lt;div&gt;&lt;u&gt;Richiesta&lt;/u&gt;&lt;/div&gt;" style="text;html=1;align=center;verticalAlign=middle;resizable=0;points=[];autosize=1;strokeColor=none;fillColor=none;" vertex="1" parent="1">
          <mxGeometry x="266" y="410" width="70" height="40" as="geometry" />
        </mxCell>
        <mxCell id="LMdMEM0r51TsX3CFZxZR-130" style="rounded=0;orthogonalLoop=1;jettySize=auto;html=1;entryX=1;entryY=0.5;entryDx=0;entryDy=0;endArrow=none;endFill=0;" edge="1" parent="1" target="LMdMEM0r51TsX3CFZxZR-118">
          <mxGeometry relative="1" as="geometry" />
        </mxCell>
        <mxCell id="LMdMEM0r51TsX3CFZxZR-132" style="rounded=0;orthogonalLoop=1;jettySize=auto;html=1;entryX=1;entryY=0.5;entryDx=0;entryDy=0;endArrow=none;endFill=0;" edge="1" parent="1" source="LMdMEM0r51TsX3CFZxZR-129" target="LMdMEM0r51TsX3CFZxZR-118">
          <mxGeometry relative="1" as="geometry" />
        </mxCell>
        <mxCell id="pPQDOuwSR7aIzYC2pbxe-32" value="(0, n)" style="edgeLabel;html=1;align=center;verticalAlign=middle;resizable=0;points=[];" connectable="0" vertex="1" parent="LMdMEM0r51TsX3CFZxZR-132">
          <mxGeometry x="0.566" y="-1" relative="1" as="geometry">
            <mxPoint as="offset" />
          </mxGeometry>
        </mxCell>
        <mxCell id="LMdMEM0r51TsX3CFZxZR-129" value="&lt;div&gt;Richiede&lt;/div&gt;" style="shape=rhombus;perimeter=rhombusPerimeter;whiteSpace=wrap;html=1;align=center;" vertex="1" parent="1">
          <mxGeometry x="114" y="467" width="120" height="60" as="geometry" />
        </mxCell>
        <mxCell id="LMdMEM0r51TsX3CFZxZR-131" style="rounded=0;orthogonalLoop=1;jettySize=auto;html=1;entryX=0;entryY=0.5;entryDx=0;entryDy=0;endArrow=none;endFill=0;" edge="1" parent="1" source="LMdMEM0r51TsX3CFZxZR-129" target="LMdMEM0r51TsX3CFZxZR-26">
          <mxGeometry relative="1" as="geometry" />
        </mxCell>
        <mxCell id="pPQDOuwSR7aIzYC2pbxe-33" value="(1, 1)" style="edgeLabel;html=1;align=center;verticalAlign=middle;resizable=0;points=[];" connectable="0" vertex="1" parent="LMdMEM0r51TsX3CFZxZR-131">
          <mxGeometry x="0.5573" y="-1" relative="1" as="geometry">
            <mxPoint as="offset" />
          </mxGeometry>
        </mxCell>
        <mxCell id="LMdMEM0r51TsX3CFZxZR-134" style="rounded=0;orthogonalLoop=1;jettySize=auto;html=1;entryX=0;entryY=1;entryDx=0;entryDy=0;endArrow=block;endFill=0;" edge="1" parent="1" source="LMdMEM0r51TsX3CFZxZR-133" target="LMdMEM0r51TsX3CFZxZR-26">
          <mxGeometry relative="1" as="geometry" />
        </mxCell>
        <mxCell id="pPQDOuwSR7aIzYC2pbxe-10" style="rounded=0;orthogonalLoop=1;jettySize=auto;html=1;endArrow=oval;endFill=1;entryX=0.456;entryY=0.017;entryDx=0;entryDy=0;entryPerimeter=0;exitX=0.75;exitY=1;exitDx=0;exitDy=0;" edge="1" parent="1" source="LMdMEM0r51TsX3CFZxZR-26" target="pPQDOuwSR7aIzYC2pbxe-11">
          <mxGeometry relative="1" as="geometry">
            <mxPoint x="442" y="570" as="targetPoint" />
            <mxPoint x="492" y="558" as="sourcePoint" />
          </mxGeometry>
        </mxCell>
        <mxCell id="pPQDOuwSR7aIzYC2pbxe-12" style="rounded=0;orthogonalLoop=1;jettySize=auto;html=1;endArrow=oval;endFill=1;exitX=0.5;exitY=1;exitDx=0;exitDy=0;entryX=0.602;entryY=0.046;entryDx=0;entryDy=0;entryPerimeter=0;" edge="1" parent="1" source="LMdMEM0r51TsX3CFZxZR-26" target="pPQDOuwSR7aIzYC2pbxe-13">
          <mxGeometry relative="1" as="geometry">
            <mxPoint x="222" y="670" as="targetPoint" />
          </mxGeometry>
        </mxCell>
        <mxCell id="LMdMEM0r51TsX3CFZxZR-133" value="Richiesta&amp;nbsp;&lt;div&gt;presa in carico&lt;/div&gt;" style="shape=ext;margin=3;double=1;whiteSpace=wrap;html=1;align=center;" vertex="1" parent="1">
          <mxGeometry x="201" y="575" width="120" height="60" as="geometry" />
        </mxCell>
        <mxCell id="LMdMEM0r51TsX3CFZxZR-137" style="rounded=0;orthogonalLoop=1;jettySize=auto;html=1;entryX=0;entryY=0.5;entryDx=0;entryDy=0;endArrow=none;endFill=0;exitX=1;exitY=0.5;exitDx=0;exitDy=0;" edge="1" parent="1" source="pPQDOuwSR7aIzYC2pbxe-8" target="LMdMEM0r51TsX3CFZxZR-133">
          <mxGeometry relative="1" as="geometry">
            <mxPoint x="140.86131386861325" y="613.4306569343066" as="sourcePoint" />
          </mxGeometry>
        </mxCell>
        <mxCell id="pPQDOuwSR7aIzYC2pbxe-35" value="(1, 1)" style="edgeLabel;html=1;align=center;verticalAlign=middle;resizable=0;points=[];" connectable="0" vertex="1" parent="LMdMEM0r51TsX3CFZxZR-137">
          <mxGeometry x="0.195" relative="1" as="geometry">
            <mxPoint as="offset" />
          </mxGeometry>
        </mxCell>
        <mxCell id="gG1z2j5m3SK7_xUaOW5N-8" style="rounded=0;orthogonalLoop=1;jettySize=auto;html=1;endArrow=none;endFill=0;entryX=1;entryY=0.5;entryDx=0;entryDy=0;exitX=0;exitY=0.5;exitDx=0;exitDy=0;" edge="1" parent="1" source="pPQDOuwSR7aIzYC2pbxe-8" target="LMdMEM0r51TsX3CFZxZR-146">
          <mxGeometry relative="1" as="geometry">
            <mxPoint x="-106" y="620" as="targetPoint" />
            <mxPoint x="34" y="620" as="sourcePoint" />
          </mxGeometry>
        </mxCell>
        <mxCell id="pPQDOuwSR7aIzYC2pbxe-34" value="(0, n)" style="edgeLabel;html=1;align=center;verticalAlign=middle;resizable=0;points=[];" connectable="0" vertex="1" parent="gG1z2j5m3SK7_xUaOW5N-8">
          <mxGeometry x="0.462" relative="1" as="geometry">
            <mxPoint as="offset" />
          </mxGeometry>
        </mxCell>
        <mxCell id="LMdMEM0r51TsX3CFZxZR-140" style="rounded=0;orthogonalLoop=1;jettySize=auto;html=1;entryX=0.75;entryY=1;entryDx=0;entryDy=0;endArrow=none;endFill=0;" edge="1" parent="1" source="LMdMEM0r51TsX3CFZxZR-138" target="LMdMEM0r51TsX3CFZxZR-118">
          <mxGeometry relative="1" as="geometry" />
        </mxCell>
        <mxCell id="pPQDOuwSR7aIzYC2pbxe-42" value="(1, n)" style="edgeLabel;html=1;align=center;verticalAlign=middle;resizable=0;points=[];" connectable="0" vertex="1" parent="LMdMEM0r51TsX3CFZxZR-140">
          <mxGeometry x="0.7361" relative="1" as="geometry">
            <mxPoint as="offset" />
          </mxGeometry>
        </mxCell>
        <mxCell id="LMdMEM0r51TsX3CFZxZR-141" style="rounded=0;orthogonalLoop=1;jettySize=auto;html=1;endArrow=oval;endFill=1;entryX=0.427;entryY=-0.053;entryDx=0;entryDy=0;entryPerimeter=0;" edge="1" parent="1" source="LMdMEM0r51TsX3CFZxZR-138" target="LMdMEM0r51TsX3CFZxZR-142">
          <mxGeometry relative="1" as="geometry">
            <mxPoint x="69" y="870" as="targetPoint" />
          </mxGeometry>
        </mxCell>
        <mxCell id="LMdMEM0r51TsX3CFZxZR-143" style="rounded=0;orthogonalLoop=1;jettySize=auto;html=1;endArrow=oval;endFill=1;entryX=0.604;entryY=0.015;entryDx=0;entryDy=0;entryPerimeter=0;" edge="1" parent="1" source="LMdMEM0r51TsX3CFZxZR-138" target="LMdMEM0r51TsX3CFZxZR-144">
          <mxGeometry relative="1" as="geometry">
            <mxPoint x="4" y="860" as="targetPoint" />
          </mxGeometry>
        </mxCell>
        <mxCell id="LMdMEM0r51TsX3CFZxZR-138" value="Sceglie" style="shape=rhombus;perimeter=rhombusPerimeter;whiteSpace=wrap;html=1;align=center;" vertex="1" parent="1">
          <mxGeometry x="2" y="757" width="120" height="60" as="geometry" />
        </mxCell>
        <mxCell id="LMdMEM0r51TsX3CFZxZR-142" value="Stato" style="text;html=1;align=center;verticalAlign=middle;resizable=0;points=[];autosize=1;strokeColor=none;fillColor=none;" vertex="1" parent="1">
          <mxGeometry x="42" y="840.5" width="50" height="30" as="geometry" />
        </mxCell>
        <mxCell id="LMdMEM0r51TsX3CFZxZR-144" value="Motivazione" style="text;html=1;align=center;verticalAlign=middle;resizable=0;points=[];autosize=1;strokeColor=none;fillColor=none;" vertex="1" parent="1">
          <mxGeometry x="-38" y="828" width="90" height="30" as="geometry" />
        </mxCell>
        <mxCell id="LMdMEM0r51TsX3CFZxZR-145" value="&lt;span style=&quot;color: rgb(51, 51, 51); font-family: &amp;quot;Helvetica Neue&amp;quot;, Helvetica, &amp;quot;Segoe UI&amp;quot;, Arial, freesans, sans-serif; text-align: left; background-color: rgb(255, 255, 255); font-size: 13px;&quot;&gt;&lt;font style=&quot;font-size: 13px;&quot;&gt;&quot;La motivazione del&amp;nbsp;&lt;/font&gt;&lt;/span&gt;&lt;div&gt;&lt;span style=&quot;color: rgb(51, 51, 51); font-family: &amp;quot;Helvetica Neue&amp;quot;, Helvetica, &amp;quot;Segoe UI&amp;quot;, Arial, freesans, sans-serif; text-align: left; background-color: rgb(255, 255, 255); font-size: 13px;&quot;&gt;&lt;font style=&quot;font-size: 13px;&quot;&gt;rifiuto&amp;nbsp;&lt;/font&gt;&lt;/span&gt;&lt;span style=&quot;font-size: 13px; background-color: rgb(255, 255, 255); color: rgb(51, 51, 51); font-family: &amp;quot;Helvetica Neue&amp;quot;, Helvetica, &amp;quot;Segoe UI&amp;quot;, Arial, freesans, sans-serif; text-align: left;&quot;&gt;sarà mostrata&amp;nbsp;&lt;/span&gt;&lt;/div&gt;&lt;div&gt;&lt;span style=&quot;font-size: 13px; background-color: rgb(255, 255, 255); color: rgb(51, 51, 51); font-family: &amp;quot;Helvetica Neue&amp;quot;, Helvetica, &amp;quot;Segoe UI&amp;quot;, Arial, freesans, sans-serif; text-align: left;&quot;&gt;assieme&amp;nbsp;&lt;/span&gt;&lt;span style=&quot;font-size: 13px; background-color: rgb(255, 255, 255); color: rgb(51, 51, 51); font-family: &amp;quot;Helvetica Neue&amp;quot;, Helvetica, &amp;quot;Segoe UI&amp;quot;, Arial, freesans, sans-serif; text-align: left;&quot;&gt;alle informazioni&amp;nbsp;&lt;/span&gt;&lt;div style=&quot;font-size: 13px;&quot;&gt;&lt;span style=&quot;color: rgb(51, 51, 51); font-family: &amp;quot;Helvetica Neue&amp;quot;, Helvetica, &amp;quot;Segoe UI&amp;quot;, Arial, freesans, sans-serif; text-align: left; background-color: rgb(255, 255, 255);&quot;&gt;&lt;font style=&quot;font-size: 13px;&quot;&gt;della richiesta.&quot;&lt;br&gt;DA CHIARIRE&lt;/font&gt;&lt;/span&gt;&lt;/div&gt;&lt;/div&gt;" style="ellipse;shape=cloud;whiteSpace=wrap;html=1;" vertex="1" parent="1">
          <mxGeometry x="104" y="791" width="188" height="129" as="geometry" />
        </mxCell>
        <mxCell id="LMdMEM0r51TsX3CFZxZR-146" value="Tecnico dei&amp;nbsp;&lt;div&gt;preventivi&lt;/div&gt;" style="rounded=0;whiteSpace=wrap;html=1;" vertex="1" parent="1">
          <mxGeometry x="-176" y="590" width="120" height="60" as="geometry" />
        </mxCell>
        <mxCell id="LMdMEM0r51TsX3CFZxZR-147" value="Tecnico degli&lt;div&gt;ordini&lt;/div&gt;" style="rounded=0;whiteSpace=wrap;html=1;" vertex="1" parent="1">
          <mxGeometry x="-356" y="802" width="120" height="60" as="geometry" />
        </mxCell>
        <mxCell id="LMdMEM0r51TsX3CFZxZR-148" style="rounded=0;orthogonalLoop=1;jettySize=auto;html=1;endArrow=classic;endFill=1;entryX=0.5;entryY=1;entryDx=0;entryDy=0;" edge="1" parent="1" source="LMdMEM0r51TsX3CFZxZR-147" target="LMdMEM0r51TsX3CFZxZR-117">
          <mxGeometry relative="1" as="geometry">
            <mxPoint x="-326" y="660" as="targetPoint" />
          </mxGeometry>
        </mxCell>
        <mxCell id="LMdMEM0r51TsX3CFZxZR-149" style="rounded=0;orthogonalLoop=1;jettySize=auto;html=1;entryX=1;entryY=0.5;entryDx=0;entryDy=0;endArrow=classic;endFill=1;" edge="1" parent="1" source="LMdMEM0r51TsX3CFZxZR-146" target="LMdMEM0r51TsX3CFZxZR-117">
          <mxGeometry relative="1" as="geometry" />
        </mxCell>
        <mxCell id="LMdMEM0r51TsX3CFZxZR-151" style="rounded=0;orthogonalLoop=1;jettySize=auto;html=1;entryX=0.5;entryY=1;entryDx=0;entryDy=0;endArrow=none;endFill=0;edgeStyle=orthogonalEdgeStyle;" edge="1" parent="1" source="LMdMEM0r51TsX3CFZxZR-150" target="LMdMEM0r51TsX3CFZxZR-153">
          <mxGeometry relative="1" as="geometry" />
        </mxCell>
        <mxCell id="pPQDOuwSR7aIzYC2pbxe-19" value="(1, 1)" style="edgeLabel;html=1;align=center;verticalAlign=middle;resizable=0;points=[];" connectable="0" vertex="1" parent="LMdMEM0r51TsX3CFZxZR-151">
          <mxGeometry x="0.9297" y="-1" relative="1" as="geometry">
            <mxPoint as="offset" />
          </mxGeometry>
        </mxCell>
        <mxCell id="LMdMEM0r51TsX3CFZxZR-150" value="Riceve" style="shape=rhombus;double=1;perimeter=rhombusPerimeter;whiteSpace=wrap;html=1;align=center;" vertex="1" parent="1">
          <mxGeometry x="-196" y="930" width="120" height="60" as="geometry" />
        </mxCell>
        <mxCell id="LMdMEM0r51TsX3CFZxZR-152" style="edgeStyle=orthogonalEdgeStyle;rounded=0;orthogonalLoop=1;jettySize=auto;html=1;entryX=0.378;entryY=1.022;entryDx=0;entryDy=0;entryPerimeter=0;endArrow=none;endFill=0;" edge="1" parent="1" source="LMdMEM0r51TsX3CFZxZR-150" target="LMdMEM0r51TsX3CFZxZR-92">
          <mxGeometry relative="1" as="geometry" />
        </mxCell>
        <mxCell id="pPQDOuwSR7aIzYC2pbxe-18" value="(1; 1)" style="edgeLabel;html=1;align=center;verticalAlign=middle;resizable=0;points=[];" connectable="0" vertex="1" parent="LMdMEM0r51TsX3CFZxZR-152">
          <mxGeometry x="0.9215" y="-4" relative="1" as="geometry">
            <mxPoint as="offset" />
          </mxGeometry>
        </mxCell>
        <mxCell id="LMdMEM0r51TsX3CFZxZR-160" style="edgeStyle=orthogonalEdgeStyle;rounded=0;orthogonalLoop=1;jettySize=auto;html=1;entryX=0;entryY=0.5;entryDx=0;entryDy=0;endArrow=none;endFill=0;" edge="1" parent="1" source="LMdMEM0r51TsX3CFZxZR-153" target="LMdMEM0r51TsX3CFZxZR-154">
          <mxGeometry relative="1" as="geometry" />
        </mxCell>
        <mxCell id="pPQDOuwSR7aIzYC2pbxe-45" value="(1, 1)" style="edgeLabel;html=1;align=center;verticalAlign=middle;resizable=0;points=[];" connectable="0" vertex="1" parent="LMdMEM0r51TsX3CFZxZR-160">
          <mxGeometry x="-0.426" y="1" relative="1" as="geometry">
            <mxPoint as="offset" />
          </mxGeometry>
        </mxCell>
        <mxCell id="pPQDOuwSR7aIzYC2pbxe-16" style="rounded=0;orthogonalLoop=1;jettySize=auto;html=1;endArrow=oval;endFill=1;" edge="1" parent="1" source="LMdMEM0r51TsX3CFZxZR-153">
          <mxGeometry relative="1" as="geometry">
            <mxPoint x="-768" y="880" as="targetPoint" />
          </mxGeometry>
        </mxCell>
        <mxCell id="LMdMEM0r51TsX3CFZxZR-153" value="Ordine di&amp;nbsp;&lt;br&gt;Acquisto" style="shape=ext;margin=3;double=1;whiteSpace=wrap;html=1;align=center;" vertex="1" parent="1">
          <mxGeometry x="-746" y="802" width="120" height="60" as="geometry" />
        </mxCell>
        <mxCell id="LMdMEM0r51TsX3CFZxZR-155" style="edgeStyle=orthogonalEdgeStyle;rounded=0;orthogonalLoop=1;jettySize=auto;html=1;entryX=0;entryY=0.5;entryDx=0;entryDy=0;endArrow=none;endFill=0;" edge="1" parent="1" source="LMdMEM0r51TsX3CFZxZR-154" target="LMdMEM0r51TsX3CFZxZR-147">
          <mxGeometry relative="1" as="geometry" />
        </mxCell>
        <mxCell id="pPQDOuwSR7aIzYC2pbxe-44" value="(0, n)" style="edgeLabel;html=1;align=center;verticalAlign=middle;resizable=0;points=[];" connectable="0" vertex="1" parent="LMdMEM0r51TsX3CFZxZR-155">
          <mxGeometry x="0.5246" y="1" relative="1" as="geometry">
            <mxPoint as="offset" />
          </mxGeometry>
        </mxCell>
        <mxCell id="LMdMEM0r51TsX3CFZxZR-154" value="Effettua" style="shape=rhombus;perimeter=rhombusPerimeter;whiteSpace=wrap;html=1;align=center;" vertex="1" parent="1">
          <mxGeometry x="-546" y="802" width="120" height="60" as="geometry" />
        </mxCell>
        <mxCell id="W4qVoquFiVN6OjdX-EVT-1" value="Stato&lt;br&gt;consegna" style="text;html=1;align=center;verticalAlign=middle;resizable=0;points=[];autosize=1;strokeColor=none;fillColor=none;" vertex="1" parent="1">
          <mxGeometry x="-836" y="822" width="80" height="40" as="geometry" />
        </mxCell>
        <mxCell id="W4qVoquFiVN6OjdX-EVT-2" style="rounded=0;orthogonalLoop=1;jettySize=auto;html=1;endArrow=oval;endFill=1;exitX=-0.011;exitY=0.333;exitDx=0;exitDy=0;exitPerimeter=0;" edge="1" parent="1" source="LMdMEM0r51TsX3CFZxZR-153">
          <mxGeometry relative="1" as="geometry">
            <mxPoint x="-796" y="822" as="targetPoint" />
            <mxPoint x="-566" y="930" as="sourcePoint" />
          </mxGeometry>
        </mxCell>
        <mxCell id="LMdMEM0r51TsX3CFZxZR-162" style="edgeStyle=orthogonalEdgeStyle;rounded=0;orthogonalLoop=1;jettySize=auto;html=1;entryX=0.5;entryY=0;entryDx=0;entryDy=0;endArrow=none;endFill=0;" edge="1" parent="1" source="LMdMEM0r51TsX3CFZxZR-161" target="LMdMEM0r51TsX3CFZxZR-153">
          <mxGeometry relative="1" as="geometry" />
        </mxCell>
        <mxCell id="pPQDOuwSR7aIzYC2pbxe-47" value="(1, 1)" style="edgeLabel;html=1;align=center;verticalAlign=middle;resizable=0;points=[];" connectable="0" vertex="1" parent="LMdMEM0r51TsX3CFZxZR-162">
          <mxGeometry x="0.8846" y="-2" relative="1" as="geometry">
            <mxPoint as="offset" />
          </mxGeometry>
        </mxCell>
        <mxCell id="LMdMEM0r51TsX3CFZxZR-163" style="edgeStyle=orthogonalEdgeStyle;rounded=0;orthogonalLoop=1;jettySize=auto;html=1;entryX=0.5;entryY=0;entryDx=0;entryDy=0;endArrow=none;endFill=0;" edge="1" parent="1" source="LMdMEM0r51TsX3CFZxZR-161" target="LMdMEM0r51TsX3CFZxZR-118">
          <mxGeometry relative="1" as="geometry" />
        </mxCell>
        <mxCell id="pPQDOuwSR7aIzYC2pbxe-46" value="(1, n)" style="edgeLabel;html=1;align=center;verticalAlign=middle;resizable=0;points=[];" connectable="0" vertex="1" parent="LMdMEM0r51TsX3CFZxZR-163">
          <mxGeometry x="0.9384" y="-1" relative="1" as="geometry">
            <mxPoint as="offset" />
          </mxGeometry>
        </mxCell>
        <mxCell id="LMdMEM0r51TsX3CFZxZR-164" style="rounded=0;orthogonalLoop=1;jettySize=auto;html=1;endArrow=oval;endFill=1;" edge="1" parent="1" source="LMdMEM0r51TsX3CFZxZR-161">
          <mxGeometry relative="1" as="geometry">
            <mxPoint x="-736" y="359.9999999999998" as="targetPoint" />
          </mxGeometry>
        </mxCell>
        <mxCell id="LMdMEM0r51TsX3CFZxZR-161" value="Chiude" style="shape=rhombus;perimeter=rhombusPerimeter;whiteSpace=wrap;html=1;align=center;" vertex="1" parent="1">
          <mxGeometry x="-746" y="365" width="120" height="60" as="geometry" />
        </mxCell>
        <mxCell id="LMdMEM0r51TsX3CFZxZR-165" value="Feedback" style="text;html=1;align=center;verticalAlign=middle;resizable=0;points=[];autosize=1;strokeColor=none;fillColor=none;" vertex="1" parent="1">
          <mxGeometry x="-786" y="334" width="80" height="30" as="geometry" />
        </mxCell>
        <mxCell id="pPQDOuwSR7aIzYC2pbxe-2" value="Valore" style="text;html=1;align=center;verticalAlign=middle;resizable=0;points=[];autosize=1;strokeColor=none;fillColor=none;" vertex="1" parent="1">
          <mxGeometry x="638" y="527" width="60" height="30" as="geometry" />
        </mxCell>
        <mxCell id="pPQDOuwSR7aIzYC2pbxe-3" value="&lt;u&gt;Nome&lt;/u&gt;" style="text;html=1;align=center;verticalAlign=middle;resizable=0;points=[];autosize=1;strokeColor=none;fillColor=none;" vertex="1" parent="1">
          <mxGeometry x="283" y="315" width="60" height="30" as="geometry" />
        </mxCell>
        <mxCell id="pPQDOuwSR7aIzYC2pbxe-4" style="rounded=0;orthogonalLoop=1;jettySize=auto;html=1;endArrow=none;endFill=0;entryX=0.5;entryY=0;entryDx=0;entryDy=0;startArrow=oval;startFill=1;exitX=0.423;exitY=0.947;exitDx=0;exitDy=0;exitPerimeter=0;" edge="1" parent="1" source="pPQDOuwSR7aIzYC2pbxe-5">
          <mxGeometry relative="1" as="geometry">
            <mxPoint x="433" y="120" as="targetPoint" />
            <mxPoint x="411.59000000000015" y="93.21000000000004" as="sourcePoint" />
          </mxGeometry>
        </mxCell>
        <mxCell id="pPQDOuwSR7aIzYC2pbxe-5" value="&lt;u&gt;Nome&lt;/u&gt;" style="text;html=1;align=center;verticalAlign=middle;resizable=0;points=[];autosize=1;strokeColor=none;fillColor=none;" vertex="1" parent="1">
          <mxGeometry x="409" y="60" width="60" height="30" as="geometry" />
        </mxCell>
        <mxCell id="pPQDOuwSR7aIzYC2pbxe-6" style="rounded=0;orthogonalLoop=1;jettySize=auto;html=1;endArrow=none;endFill=0;entryX=0;entryY=0.5;entryDx=0;entryDy=0;startArrow=oval;startFill=1;" edge="1" parent="1" target="LMdMEM0r51TsX3CFZxZR-1">
          <mxGeometry relative="1" as="geometry">
            <mxPoint x="114" y="155" as="targetPoint" />
            <mxPoint x="63" y="155" as="sourcePoint" />
          </mxGeometry>
        </mxCell>
        <mxCell id="pPQDOuwSR7aIzYC2pbxe-7" value="&lt;u&gt;Nome&lt;/u&gt;" style="text;html=1;align=center;verticalAlign=middle;resizable=0;points=[];autosize=1;strokeColor=none;fillColor=none;" vertex="1" parent="1">
          <mxGeometry x="32" y="150" width="60" height="30" as="geometry" />
        </mxCell>
        <mxCell id="pPQDOuwSR7aIzYC2pbxe-8" value="Processa" style="shape=rhombus;double=1;perimeter=rhombusPerimeter;whiteSpace=wrap;html=1;align=center;" vertex="1" parent="1">
          <mxGeometry x="32" y="587" width="120" height="60" as="geometry" />
        </mxCell>
        <mxCell id="pPQDOuwSR7aIzYC2pbxe-11" value="Data" style="text;html=1;align=center;verticalAlign=middle;resizable=0;points=[];autosize=1;strokeColor=none;fillColor=none;" vertex="1" parent="1">
          <mxGeometry x="424" y="557" width="50" height="30" as="geometry" />
        </mxCell>
        <mxCell id="pPQDOuwSR7aIzYC2pbxe-13" value="Ora" style="text;html=1;align=center;verticalAlign=middle;resizable=0;points=[];autosize=1;strokeColor=none;fillColor=none;" vertex="1" parent="1">
          <mxGeometry x="382" y="557" width="40" height="30" as="geometry" />
        </mxCell>
        <mxCell id="pPQDOuwSR7aIzYC2pbxe-15" value="Notebook&lt;br&gt;PC desktop&lt;div&gt;Scrivania&lt;/div&gt;" style="ellipse;shape=cloud;whiteSpace=wrap;html=1;" vertex="1" parent="1">
          <mxGeometry x="253" y="210" width="120" height="80" as="geometry" />
        </mxCell>
        <mxCell id="pPQDOuwSR7aIzYC2pbxe-17" value="Data di&amp;nbsp;&lt;div&gt;consegna&lt;/div&gt;" style="text;html=1;align=center;verticalAlign=middle;resizable=0;points=[];autosize=1;strokeColor=none;fillColor=none;" vertex="1" parent="1">
          <mxGeometry x="-815" y="877" width="80" height="40" as="geometry" />
        </mxCell>
      </root>
    </mxGraphModel>
  </diagram>
</mxfile>
